<svg aria-hidden="true" style="position: absolute; width: 0; height: 0; overflow: hidden;" version="1.1" xmlns="http://www.w3.org/2000/svg" xmlns:xlink="http://www.w3.org/1999/xlink">
<defs>
<symbol id="icon-binoculars" viewBox="0 0 32 32">
<title>binoculars</title>
<path d="M6.943 29.588c-3.828 0-6.943-3.115-6.943-6.943s3.115-6.944 6.943-6.944 6.944 3.115 6.944 6.944-3.116 6.943-6.944 6.943zM6.943 16.671c-3.293 0-5.973 2.68-5.973 5.974s2.68 5.973 5.973 5.973c3.294 0 5.974-2.68 5.974-5.973s-2.68-5.974-5.974-5.974z"></path>
<path d="M13.402 10.654c-0.268 0-0.485-0.217-0.485-0.485 0-2.033-1.653-3.685-3.685-3.685-1.55 0-2.944 0.979-3.469 2.437-0.090 0.25-0.367 0.383-0.621 0.291-0.252-0.090-0.382-0.368-0.292-0.621 0.662-1.841 2.423-3.078 4.38-3.078 2.567 0 4.655 2.088 4.655 4.655 0.001 0.269-0.216 0.486-0.484 0.486z"></path>
<path d="M13.402 23.13c-0.268 0-0.485-0.217-0.485-0.485v-12.476c0-0.268 0.217-0.485 0.485-0.485s0.485 0.217 0.485 0.485v12.476c0 0.268-0.217 0.485-0.485 0.485z"></path>
<path d="M0.819 21.084c-0.057 0-0.115-0.010-0.173-0.032-0.25-0.095-0.376-0.375-0.281-0.625l4.422-11.638c0.095-0.25 0.374-0.376 0.625-0.281s0.376 0.375 0.281 0.625l-4.421 11.638c-0.074 0.194-0.258 0.313-0.454 0.313z"></path>
<path d="M12.367 5.297c-0.268 0-0.485-0.217-0.485-0.485 0-0.789-0.643-1.432-1.432-1.432-0.602 0-1.144 0.381-1.348 0.947-0.090 0.251-0.368 0.384-0.621 0.292-0.252-0.090-0.383-0.369-0.292-0.621 0.342-0.949 1.25-1.588 2.26-1.588 1.325 0 2.402 1.077 2.402 2.402 0 0.269-0.217 0.485-0.485 0.485z"></path>
<path d="M12.367 7.377c-0.268 0-0.485-0.217-0.485-0.485v-2.079c0-0.268 0.217-0.485 0.485-0.485s0.485 0.217 0.485 0.485v2.079c0 0.269-0.217 0.485-0.485 0.485z"></path>
<path d="M7.965 6.455c-0.057 0-0.115-0.010-0.173-0.032-0.25-0.095-0.376-0.375-0.281-0.625l0.651-1.713c0.095-0.25 0.374-0.377 0.625-0.281s0.376 0.375 0.281 0.625l-0.651 1.714c-0.074 0.194-0.257 0.312-0.453 0.312z"></path>
<path d="M25.057 29.588c-3.828 0-6.944-3.115-6.944-6.943s3.115-6.944 6.944-6.944 6.943 3.116 6.943 6.944-3.115 6.943-6.943 6.943zM25.057 16.671c-3.294 0-5.974 2.68-5.974 5.974s2.68 5.973 5.974 5.973c3.293 0 5.973-2.68 5.973-5.973s-2.68-5.974-5.973-5.974z"></path>
<path d="M18.598 10.654c-0.268 0-0.485-0.217-0.485-0.485 0-2.567 2.088-4.655 4.655-4.655 1.958 0 3.718 1.236 4.38 3.078 0.091 0.252-0.040 0.529-0.292 0.621-0.254 0.092-0.53-0.041-0.621-0.292-0.525-1.457-1.919-2.437-3.469-2.437-2.032 0-3.685 1.653-3.685 3.685 0.001 0.268-0.215 0.485-0.484 0.485z"></path>
<path d="M18.598 23.13c-0.268 0-0.485-0.217-0.485-0.485v-12.476c0-0.268 0.217-0.485 0.485-0.485s0.485 0.217 0.485 0.485v12.476c0 0.268-0.216 0.485-0.485 0.485z"></path>
<path d="M31.181 21.084c-0.196 0-0.38-0.119-0.453-0.312l-4.422-11.638c-0.095-0.25 0.031-0.53 0.281-0.625 0.252-0.096 0.53 0.031 0.625 0.281l4.422 11.638c0.095 0.25-0.031 0.53-0.281 0.625-0.057 0.020-0.115 0.031-0.173 0.031z"></path>
<path d="M19.633 5.297c-0.268 0-0.485-0.217-0.485-0.485 0-1.325 1.077-2.402 2.402-2.402 1.010 0 1.919 0.638 2.26 1.588 0.091 0.252-0.040 0.529-0.292 0.621-0.255 0.091-0.529-0.041-0.621-0.292-0.204-0.566-0.746-0.947-1.349-0.947-0.789 0-1.432 0.643-1.432 1.432 0.001 0.269-0.216 0.485-0.484 0.485z"></path>
<path d="M19.633 7.377c-0.268 0-0.485-0.217-0.485-0.485v-2.079c0-0.268 0.217-0.485 0.485-0.485s0.485 0.217 0.485 0.485v2.079c0 0.269-0.217 0.485-0.485 0.485z"></path>
<path d="M24.035 6.455c-0.196 0-0.38-0.119-0.453-0.312l-0.651-1.713c-0.095-0.25 0.031-0.53 0.281-0.625 0.252-0.097 0.53 0.030 0.625 0.281l0.651 1.713c0.095 0.25-0.031 0.53-0.281 0.625-0.057 0.021-0.115 0.031-0.173 0.031z"></path>
<path d="M18.598 17.491h-5.196c-0.268 0-0.485-0.217-0.485-0.485s0.217-0.485 0.485-0.485h4.711v-4.044h-4.711c-0.268 0-0.485-0.217-0.485-0.485s0.217-0.485 0.485-0.485h5.196c0.268 0 0.485 0.217 0.485 0.485v5.013c0 0.268-0.216 0.485-0.485 0.485z"></path>
</symbol>
<symbol id="icon-photo-camera" viewBox="0 0 32 32">
<title>photo-camera</title>
<path fill="#0095da" style="fill: var(--color1, #0095da)" d="M28.301 28.642h-24.603c-2.039 0-3.698-1.659-3.698-3.698v-14.998c0-2.040 1.659-3.698 3.698-3.698h5.020l0.439-1.482c0.179-0.811 0.921-1.407 1.793-1.407h10.098c0.848 0 1.598 0.592 1.796 1.414l0.012 0.051 0.401 1.424h5.044c2.040 0 3.698 1.659 3.698 3.698v14.998c-0.001 2.040-1.66 3.698-3.699 3.698zM3.698 7.48c-1.36 0-2.465 1.106-2.465 2.465v14.998c0 1.36 1.106 2.465 2.465 2.465h24.603c1.36 0 2.465-1.106 2.465-2.465v-14.998c0-1.36-1.106-2.465-2.465-2.465h-5.977l-0.675-2.407c-0.062-0.28-0.314-0.483-0.6-0.483h-10.098c-0.29 0-0.537 0.198-0.6 0.483l-0.712 2.406h-5.939zM16.001 24.916c-4.314 0-7.823-3.509-7.823-7.822s3.509-7.823 7.823-7.823c4.313 0 7.822 3.51 7.822 7.823s-3.509 7.822-7.822 7.822zM16.001 10.503c-3.634 0-6.591 2.956-6.591 6.59s2.957 6.589 6.591 6.589c3.633 0 6.589-2.956 6.589-6.589s-2.956-6.59-6.589-6.59zM27.506 9.768c-0.629 0-1.137 0.51-1.137 1.137s0.508 1.137 1.137 1.137c0.628 0 1.137-0.509 1.137-1.137s-0.509-1.137-1.137-1.137z"></path>
</symbol>
<symbol id="icon-add" viewBox="0 0 32 32">
<title>add</title>
<path d="M32 14.476h-14.476v-14.476h-3.048v14.476h-14.476v3.048h14.476v14.476h3.048v-14.476h14.476z"></path>
</symbol>
<symbol id="icon-binoculars1" viewBox="0 0 32 32">
<title>binoculars1</title>
<path d="M6.943 29.588c-3.828 0-6.943-3.115-6.943-6.943s3.115-6.944 6.943-6.944 6.944 3.115 6.944 6.944-3.116 6.943-6.944 6.943zM6.943 16.671c-3.293 0-5.973 2.68-5.973 5.974s2.68 5.973 5.973 5.973c3.294 0 5.974-2.68 5.974-5.973s-2.68-5.974-5.974-5.974z"></path>
<path d="M13.402 10.654c-0.268 0-0.485-0.217-0.485-0.485 0-2.033-1.653-3.685-3.685-3.685-1.55 0-2.944 0.979-3.469 2.437-0.090 0.25-0.367 0.383-0.621 0.291-0.252-0.090-0.382-0.368-0.292-0.621 0.662-1.841 2.423-3.078 4.38-3.078 2.567 0 4.655 2.088 4.655 4.655 0.001 0.269-0.216 0.486-0.484 0.486z"></path>
<path d="M13.402 23.13c-0.268 0-0.485-0.217-0.485-0.485v-12.476c0-0.268 0.217-0.485 0.485-0.485s0.485 0.217 0.485 0.485v12.476c0 0.268-0.217 0.485-0.485 0.485z"></path>
<path d="M0.819 21.084c-0.057 0-0.115-0.010-0.173-0.032-0.25-0.095-0.376-0.375-0.281-0.625l4.422-11.638c0.095-0.25 0.374-0.376 0.625-0.281s0.376 0.375 0.281 0.625l-4.421 11.638c-0.074 0.194-0.258 0.313-0.454 0.313z"></path>
<path d="M12.367 5.297c-0.268 0-0.485-0.217-0.485-0.485 0-0.789-0.643-1.432-1.432-1.432-0.602 0-1.144 0.381-1.348 0.947-0.090 0.251-0.368 0.384-0.621 0.292-0.252-0.090-0.383-0.369-0.292-0.621 0.342-0.949 1.25-1.588 2.26-1.588 1.325 0 2.402 1.077 2.402 2.402 0 0.269-0.217 0.485-0.485 0.485z"></path>
<path d="M12.367 7.377c-0.268 0-0.485-0.217-0.485-0.485v-2.079c0-0.268 0.217-0.485 0.485-0.485s0.485 0.217 0.485 0.485v2.079c0 0.269-0.217 0.485-0.485 0.485z"></path>
<path d="M7.965 6.455c-0.057 0-0.115-0.010-0.173-0.032-0.25-0.095-0.376-0.375-0.281-0.625l0.651-1.713c0.095-0.25 0.374-0.377 0.625-0.281s0.376 0.375 0.281 0.625l-0.651 1.714c-0.074 0.194-0.257 0.312-0.453 0.312z"></path>
<path d="M25.057 29.588c-3.828 0-6.944-3.115-6.944-6.943s3.115-6.944 6.944-6.944 6.943 3.116 6.943 6.944-3.115 6.943-6.943 6.943zM25.057 16.671c-3.294 0-5.974 2.68-5.974 5.974s2.68 5.973 5.974 5.973c3.293 0 5.973-2.68 5.973-5.973s-2.68-5.974-5.973-5.974z"></path>
<path d="M18.598 10.654c-0.268 0-0.485-0.217-0.485-0.485 0-2.567 2.088-4.655 4.655-4.655 1.958 0 3.718 1.236 4.38 3.078 0.091 0.252-0.040 0.529-0.292 0.621-0.254 0.092-0.53-0.041-0.621-0.292-0.525-1.457-1.919-2.437-3.469-2.437-2.032 0-3.685 1.653-3.685 3.685 0.001 0.268-0.215 0.485-0.484 0.485z"></path>
<path d="M18.598 23.13c-0.268 0-0.485-0.217-0.485-0.485v-12.476c0-0.268 0.217-0.485 0.485-0.485s0.485 0.217 0.485 0.485v12.476c0 0.268-0.216 0.485-0.485 0.485z"></path>
<path d="M31.181 21.084c-0.196 0-0.38-0.119-0.453-0.312l-4.422-11.638c-0.095-0.25 0.031-0.53 0.281-0.625 0.252-0.096 0.53 0.031 0.625 0.281l4.422 11.638c0.095 0.25-0.031 0.53-0.281 0.625-0.057 0.020-0.115 0.031-0.173 0.031z"></path>
<path d="M19.633 5.297c-0.268 0-0.485-0.217-0.485-0.485 0-1.325 1.077-2.402 2.402-2.402 1.010 0 1.919 0.638 2.26 1.588 0.091 0.252-0.040 0.529-0.292 0.621-0.255 0.091-0.529-0.041-0.621-0.292-0.204-0.566-0.746-0.947-1.349-0.947-0.789 0-1.432 0.643-1.432 1.432 0.001 0.269-0.216 0.485-0.484 0.485z"></path>
<path d="M19.633 7.377c-0.268 0-0.485-0.217-0.485-0.485v-2.079c0-0.268 0.217-0.485 0.485-0.485s0.485 0.217 0.485 0.485v2.079c0 0.269-0.217 0.485-0.485 0.485z"></path>
<path d="M24.035 6.455c-0.196 0-0.38-0.119-0.453-0.312l-0.651-1.713c-0.095-0.25 0.031-0.53 0.281-0.625 0.252-0.097 0.53 0.030 0.625 0.281l0.651 1.713c0.095 0.25-0.031 0.53-0.281 0.625-0.057 0.021-0.115 0.031-0.173 0.031z"></path>
<path d="M18.598 17.491h-5.196c-0.268 0-0.485-0.217-0.485-0.485s0.217-0.485 0.485-0.485h4.711v-4.044h-4.711c-0.268 0-0.485-0.217-0.485-0.485s0.217-0.485 0.485-0.485h5.196c0.268 0 0.485 0.217 0.485 0.485v5.013c0 0.268-0.216 0.485-0.485 0.485z"></path>
</symbol>
<symbol id="icon-box" viewBox="0 0 32 32">
<title>box</title>
<path d="M30.733 7.061l-14.529-7.014c-0.129-0.062-0.279-0.062-0.408 0l-14.529 7.014c-0.162 0.078-0.265 0.242-0.265 0.422v17.034c0 0.18 0.103 0.344 0.265 0.422l14.529 7.014c0.064 0.031 0.134 0.047 0.204 0.047s0.139-0.016 0.204-0.047l14.529-7.014c0.162-0.078 0.265-0.242 0.265-0.422v-17.034c0-0.18-0.103-0.344-0.265-0.422zM16 0.989l13.451 6.494-3.899 1.882c-0.025-0.019-0.051-0.036-0.079-0.050l-13.36-6.449 3.887-1.877zM11.054 3.396l13.431 6.484-2.751 1.328-13.426-6.481 2.745-1.331zM24.8 10.769v4.909l-2.57 1.241v-4.909l2.57-1.241zM30.061 24.223l-13.592 6.561v-15.993l3.242-1.565c0.233-0.113 0.331-0.393 0.218-0.626s-0.393-0.331-0.626-0.218l-3.303 1.595-1.3-0.627c-0.233-0.113-0.513-0.015-0.626 0.218s-0.015 0.513 0.218 0.626l1.239 0.598v15.993l-13.592-6.561v-15.993l10.35 4.997c0.066 0.032 0.135 0.047 0.203 0.047 0.174 0 0.342-0.098 0.422-0.265 0.113-0.233 0.015-0.513-0.218-0.626l-10.148-4.899 4.657-2.248 14.081 6.798c0.002 0.003 0.004 0.005 0.006 0.008v5.625c0 0.161 0.083 0.311 0.22 0.397 0.076 0.048 0.162 0.072 0.249 0.072 0.070 0 0.139-0.015 0.204-0.047l3.507-1.693c0.162-0.078 0.265-0.242 0.265-0.422v-5.656l4.323-2.087v15.993z"></path>
<path d="M5.808 22.405l-2.132-1.029c-0.233-0.113-0.513-0.015-0.626 0.218s-0.015 0.513 0.218 0.626l2.132 1.029c0.066 0.032 0.135 0.047 0.203 0.047 0.174 0 0.342-0.098 0.422-0.265 0.113-0.233 0.015-0.513-0.218-0.626z"></path>
<path d="M7.77 21.128l-4.092-1.975c-0.233-0.113-0.513-0.015-0.626 0.218s-0.015 0.513 0.218 0.626l4.092 1.975c0.066 0.032 0.135 0.047 0.203 0.047 0.174 0 0.342-0.098 0.422-0.265 0.113-0.233 0.015-0.514-0.218-0.626z"></path>
</symbol>
<symbol id="icon-checked" viewBox="0 0 32 32">
<title>checked</title>
<path d="M30.331 4.917l-18.83 18.83-9.833-9.833-1.669 1.669 11.502 11.501 20.498-20.498z"></path>
</symbol>
<symbol id="icon-delivery-man" viewBox="0 0 32 32">
<title>delivery-man</title>
<path d="M19.152 27.273h1.051v1.051h-1.051v-1.051z"></path>
<path d="M9.697 20.969h3.152v1.051h-3.152v-1.051z"></path>
<path d="M28.607 31.427l-1.23-13.513c-0.211-2.44-2.259-4.31-4.709-4.299h-3.516v-1.449c0.674-0.764 1.047-1.746 1.051-2.765v-2.143c0.042-0.019 0.082-0.042 0.121-0.066 0.256-0.198 0.405-0.503 0.404-0.827v-1.020c-0-0.374-0.201-0.72-0.525-0.907v-2.113c-0.002-0.703-0.468-1.32-1.143-1.515l-2.626-0.75c-0.283-0.081-0.583-0.081-0.866 0l-2.626 0.75c-0.675 0.196-1.14 0.813-1.142 1.515v2.113c-0.325 0.186-0.525 0.532-0.525 0.907v1.020c-0.001 0.324 0.148 0.63 0.404 0.828 0.039 0.028 0.079 0.053 0.121 0.075v2.135c0.004 1.018 0.377 2.001 1.051 2.765v1.447h-3.516c-2.449-0.011-4.497 1.86-4.709 4.3l-1.23 13.512c-0.026 0.289 0.187 0.544 0.476 0.57 0.016 0.002 0.033 0.002 0.049 0.002h24.163c0.29 0.001 0.526-0.233 0.527-0.523 0-0.017-0.001-0.033-0.002-0.049zM19.152 9.402c-0.001 1.131-0.607 2.175-1.588 2.737v0c-1.511 0.864-3.437 0.339-4.3-1.173-0.272-0.476-0.415-1.015-0.415-1.564v-2.086l1.114-0.278c1.338-0.334 2.738-0.334 4.077 0l1.113 0.278v2.086zM18.101 13.040v0.932l-2.101 2.942-2.101-2.942v-0.932c0.006 0.004 0.011 0.008 0.016 0.011 1.293 0.735 2.877 0.735 4.17 0 0.006-0.003 0.011-0.007 0.016-0.011zM12.848 2.327c-0-0.235 0.155-0.441 0.381-0.505h-0.001l2.626-0.751c0.094-0.027 0.194-0.027 0.288 0l2.626 0.75c0.226 0.064 0.383 0.271 0.382 0.506v1.805l-0.858-0.214c-1.506-0.375-3.081-0.375-4.587 0l-0.858 0.214v-1.805zM12.323 6.367v-1.020l1.639-0.41c1.338-0.334 2.738-0.334 4.076 0l1.639 0.41v1.020l-1.384-0.346c-1.506-0.375-3.081-0.375-4.586 0l-1.384 0.346zM5.67 18.010c0.164-1.898 1.757-3.353 3.662-3.344h3.771l2.469 3.457c0.186 0.236 0.529 0.276 0.765 0.090 0.033-0.026 0.064-0.057 0.090-0.090l2.47-3.457h3.771c1.905-0.008 3.498 1.446 3.662 3.344l0.555 6.111h-2.481v-5.253h-16.809v5.253h-2.481l0.555-6.111zM17.051 19.919v5.253h-2.101v-5.253h2.101zM5.494 27.798v3.152h-0.998l0.525-5.778h2.574v1.147c-0.168-0.062-0.346-0.095-0.525-0.097-0.87 0-1.576 0.706-1.576 1.576zM10.747 30.949h-4.202v-3.152c0-0.29 0.235-0.525 0.525-0.525s0.525 0.235 0.525 0.525v2.101h3.152c0.29 0 0.525 0.235 0.525 0.525s-0.235 0.525-0.525 0.525zM19.774 30.949h-7.547c0.062-0.168 0.095-0.346 0.097-0.525 0-0.87-0.706-1.576-1.576-1.576h-2.101v-8.93h5.253v6.303h4.202v-6.303h5.253v8.93h-2.101c-0.87 0-1.576 0.706-1.576 1.576 0.002 0.179 0.034 0.357 0.097 0.525zM25.455 30.949h-4.202c-0.29 0-0.525-0.235-0.525-0.525s0.235-0.525 0.525-0.525h3.152v-2.101c0-0.29 0.235-0.525 0.525-0.525s0.525 0.235 0.525 0.525v3.152zM26.506 30.949v-3.152c0-0.87-0.706-1.576-1.576-1.576-0.179 0.002-0.357 0.034-0.525 0.097v-1.147h2.576l0.525 5.778h-1.001z"></path>
<path d="M21.253 27.273h1.051v1.051h-1.051v-1.051z"></path>
</symbol>
<symbol id="icon-diamond" viewBox="0 0 32 32">
<title>diamond</title>
<path d="M30.24 11.52l-4.8-6.4c-0.123-0.165-0.306-0.275-0.509-0.309l-9.6-1.6c-0.086-0.014-0.176-0.014-0.262 0l-9.6 1.6c-0.203 0.034-0.386 0.144-0.509 0.309l-4.8 6.4c-0.229 0.306-0.21 0.731 0.045 1.014l14.4 16c0.152 0.168 0.368 0.266 0.595 0.266s0.443-0.096 0.595-0.266l14.4-16c0.256-0.285 0.275-0.709 0.045-1.014zM20.458 11.2l-5.258 14.459-5.258-14.459h10.515zM10.731 9.6l4.469-4.469 4.469 4.469h-8.938zM17.531 5.2l5.917 0.986-1.973 2.958-3.946-3.944zM8.925 9.144l-1.973-2.958 5.917-0.986-3.944 3.944zM7.472 9.85l-4.776 0.955 2.866-3.821 1.91 2.866zM8.283 11.32l4.758 13.086-10.707-11.898 5.949-1.19zM22.117 11.32l5.949 1.19-10.707 11.898 4.758-13.086zM22.928 9.85l1.91-2.866 2.866 3.821-4.776-0.955z"></path>
</symbol>
<symbol id="icon-garbage" viewBox="0 0 32 32">
<title>garbage</title>
<path d="M16 27.661c0.299 0 0.542-0.242 0.542-0.542v-17.898c0-0.3-0.243-0.542-0.542-0.542s-0.542 0.242-0.542 0.542v17.898c0 0.3 0.243 0.542 0.542 0.542z"></path>
<path d="M10.576 27.661c0.299 0 0.542-0.242 0.542-0.542v-17.898c0-0.3-0.243-0.542-0.542-0.542s-0.542 0.242-0.542 0.542v17.898c0 0.3 0.243 0.542 0.542 0.542z"></path>
<path d="M21.424 27.661c0.299 0 0.542-0.242 0.542-0.542v-17.898c0-0.3-0.243-0.542-0.542-0.542s-0.542 0.242-0.542 0.542v17.898c0 0.3 0.243 0.542 0.542 0.542z"></path>
<path d="M28.475 3.254h-7.617c-0.060-0.678-0.268-1.821-0.983-2.555-0.452-0.464-1.026-0.699-1.705-0.699h-5.423c-0.679 0-1.253 0.235-1.705 0.699-0.715 0.734-0.924 1.877-0.983 2.555h-6.532c-0.299 0-0.542 0.242-0.542 0.542s0.243 0.542 0.542 0.542h1.107l1.039 24.961c0.020 0.934 0.601 2.7 2.662 2.7h15.334c2.060 0 2.642-1.767 2.661-2.689l1.039-24.972h1.107c0.299 0 0.542-0.242 0.542-0.542s-0.243-0.542-0.542-0.542zM11.819 1.454c0.243-0.248 0.546-0.369 0.926-0.369h5.423c0.38 0 0.683 0.121 0.926 0.369 0.437 0.446 0.612 1.232 0.673 1.8h-8.62c0.061-0.568 0.236-1.354 0.672-1.8zM25.244 29.277c-0.003 0.168-0.078 1.639-1.577 1.639h-15.334c-1.483 0-1.572-1.474-1.578-1.65l-1.038-24.926h20.564l-1.038 24.938z"></path>
</symbol>
<symbol id="icon-inbox" viewBox="0 0 32 32">
<title>inbox</title>
<path d="M31.291 16.613l-4.317-9.869c-0.477-1.091-1.784-1.946-2.974-1.946h-16c-1.19 0-2.498 0.854-2.974 1.946l-4.317 9.869c-0.397 0.909-0.709 2.395-0.709 3.387v6.4c0 1.323 1.077 2.4 2.4 2.4h27.2c1.323 0 2.4-1.077 2.4-2.4v-6.4c0-0.99-0.31-2.478-0.709-3.387zM6.491 7.387c0.226-0.517 0.946-0.987 1.509-0.987h16c0.563 0 1.283 0.47 1.509 0.987l4.317 9.869c0.048 0.11 0.096 0.237 0.142 0.373-0.12-0.019-0.243-0.029-0.368-0.029h-9.6c-0.442 0-0.8 0.358-0.8 0.8v0.8c0 1.765-1.435 3.2-3.2 3.2s-3.2-1.435-3.2-3.2v-0.8c0-0.442-0.358-0.8-0.8-0.8h-9.6c-0.125 0-0.248 0.010-0.368 0.029 0.046-0.136 0.093-0.262 0.142-0.373l4.317-9.869zM30.4 26.4c0 0.442-0.358 0.8-0.8 0.8h-27.2c-0.442 0-0.8-0.358-0.8-0.8v-6.4c0-0.442 0.358-0.8 0.8-0.8h8.8c0 2.646 2.154 4.8 4.8 4.8s4.8-2.154 4.8-4.8h8.8c0.442 0 0.8 0.358 0.8 0.8v6.4z"></path>
</symbol>
<symbol id="icon-layers" viewBox="0 0 32 32">
<title>layers</title>
<path d="M16 19.2c-0.106 0-0.211-0.021-0.31-0.062l-15.2-6.4c-0.296-0.125-0.49-0.416-0.49-0.738s0.194-0.613 0.49-0.738l15.2-6.4c0.198-0.083 0.422-0.083 0.621 0l15.2 6.4c0.296 0.125 0.49 0.416 0.49 0.738s-0.194 0.613-0.49 0.738l-15.2 6.4c-0.099 0.042-0.205 0.062-0.31 0.062zM2.861 12l13.139 5.531 13.139-5.531-13.139-5.531-13.139 5.531z"></path>
<path d="M16 24c-0.106 0-0.211-0.021-0.31-0.062l-15.2-6.4c-0.406-0.171-0.598-0.64-0.427-1.048s0.64-0.598 1.048-0.427l14.89 6.269 14.89-6.269c0.406-0.171 0.877 0.019 1.048 0.427s-0.019 0.877-0.427 1.048l-15.2 6.4c-0.099 0.042-0.205 0.062-0.31 0.062z"></path>
<path d="M16 28.8c-0.106 0-0.211-0.021-0.31-0.062l-15.2-6.4c-0.406-0.171-0.598-0.64-0.427-1.048s0.64-0.598 1.048-0.427l14.89 6.269 14.89-6.269c0.406-0.171 0.877 0.019 1.048 0.427s-0.019 0.877-0.427 1.048l-15.2 6.4c-0.099 0.042-0.205 0.062-0.31 0.062z"></path>
</symbol>
<symbol id="icon-pencil" viewBox="0 0 32 32">
<title>pencil</title>
<path d="M30.566 1.434c-0.899-0.899-2.094-1.394-3.366-1.394s-2.467 0.494-3.366 1.394l-20.4 20.4c-0.083 0.083-0.146 0.182-0.186 0.293l-3.2 8.8c-0.106 0.293-0.034 0.619 0.186 0.838 0.152 0.152 0.357 0.234 0.566 0.234 0.091 0 0.184-0.016 0.274-0.048l8.8-3.2c0.11-0.040 0.21-0.104 0.293-0.186l20.4-20.4c0.899-0.899 1.394-2.094 1.394-3.366s-0.494-2.467-1.394-3.366zM9.16 27.309l-7.022 2.554 2.554-7.022 17.709-17.709 4.469 4.469-17.709 17.709zM29.434 7.034l-1.434 1.434-4.469-4.469 1.434-1.434c0.597-0.597 1.39-0.925 2.234-0.925s1.637 0.328 2.234 0.925c0.597 0.597 0.925 1.39 0.925 2.234s-0.328 1.637-0.925 2.234z"></path>
</symbol>
<symbol id="icon-trolley" viewBox="0 0 32 32">
<title>trolley</title>
<path d="M23.219 22.825h-21.85v-1.231h20.744l3.381-20.875h5.137v1.3h-4.031z"></path>
<path d="M17.756 31.281c-1.819 0-3.319-1.494-3.319-3.381s1.494-3.381 3.319-3.381c1.819 0 3.319 1.494 3.319 3.381-0.006 1.887-1.5 3.381-3.319 3.381zM17.756 25.819c-1.169 0-2.081 0.975-2.081 2.081 0 1.169 0.913 2.081 2.081 2.081s2.081-0.975 2.081-2.081c-0.069-1.169-0.975-2.081-2.081-2.081z"></path>
<path d="M5.725 31.281c-1.819 0-3.319-1.494-3.319-3.381s1.494-3.381 3.319-3.381 3.319 1.494 3.319 3.381c0.063 1.887-1.431 3.381-3.319 3.381zM5.725 25.819c-1.169 0-2.081 0.975-2.081 2.081 0 1.169 0.912 2.081 2.081 2.081s2.081-0.975 2.081-2.081c0-1.169-0.906-2.081-2.081-2.081z"></path>
<path d="M19.25 19.837h-13.719v-17.688h13.719v17.688zM6.831 18.6h11.119v-15.213h-11.119v15.213z"></path>
</symbol>
<symbol id="icon-users" viewBox="0 0 32 32">
<title>users</title>
<path d="M29.6 28.8h-17.6c-1.323 0-2.4-1.077-2.4-2.4 0-0.077 0.018-1.904 1.478-3.704 0.84-1.034 1.986-1.853 3.405-2.435 1.714-0.704 3.84-1.059 6.317-1.059s4.602 0.357 6.317 1.059c1.419 0.582 2.565 1.402 3.405 2.435 1.462 1.8 1.478 3.627 1.478 3.704 0 1.323-1.077 2.4-2.4 2.4zM11.2 26.405c0.002 0.44 0.36 0.795 0.8 0.795h17.6c0.44 0 0.798-0.357 0.8-0.795-0.002-0.056-0.051-1.432-1.182-2.774-1.558-1.851-4.469-2.829-8.418-2.829s-6.859 0.979-8.418 2.829c-1.131 1.344-1.181 2.718-1.182 2.774z"></path>
<path d="M20.8 17.6c-3.53 0-6.4-2.87-6.4-6.4s2.87-6.4 6.4-6.4 6.4 2.87 6.4 6.4c0 3.53-2.87 6.4-6.4 6.4zM20.8 6.4c-2.646 0-4.8 2.154-4.8 4.8s2.154 4.8 4.8 4.8 4.8-2.154 4.8-4.8-2.154-4.8-4.8-4.8z"></path>
<path d="M7.2 28.8h-4.8c-1.323 0-2.4-1.077-2.4-2.4 0-0.059 0.013-1.483 1.061-2.88 0.605-0.808 1.43-1.446 2.453-1.901 1.222-0.544 2.733-0.819 4.488-0.819 0.286 0 0.57 0.008 0.843 0.022 0.442 0.024 0.779 0.4 0.757 0.842s-0.4 0.781-0.842 0.757c-0.245-0.013-0.499-0.019-0.757-0.019-6.23 0-6.395 3.806-6.4 4.005 0.002 0.438 0.36 0.795 0.8 0.795h4.8c0.442 0 0.8 0.358 0.8 0.8s-0.358 0.8-0.8 0.8z"></path>
<path d="M8 19.2c-2.646 0-4.8-2.154-4.8-4.8s2.154-4.8 4.8-4.8 4.8 2.154 4.8 4.8-2.154 4.8-4.8 4.8zM8 11.2c-1.765 0-3.2 1.435-3.2 3.2s1.435 3.2 3.2 3.2 3.2-1.435 3.2-3.2c0-1.765-1.435-3.2-3.2-3.2z"></path>
</symbol>

<symbol id="icon-magnifier" viewBox="0 0 32 32">
<title>magnifier</title>
<path d="M30.19 30.659l-9.509-10.374c2.142-2.242 3.32-5.173 3.32-8.285 0-3.205-1.248-6.219-3.515-8.485s-5.28-3.515-8.485-3.515-6.219 1.248-8.485 3.515-3.515 5.28-3.515 8.485 1.248 6.219 3.515 8.485 5.28 3.515 8.485 3.515c2.762 0 5.379-0.926 7.501-2.632l9.509 10.373c0.158 0.173 0.373 0.259 0.59 0.259 0.194 0 0.387-0.069 0.541-0.21 0.326-0.299 0.347-0.805 0.050-1.13zM1.6 12c0-5.734 4.666-10.4 10.4-10.4s10.4 4.666 10.4 10.4-4.666 10.4-10.4 10.4-10.4-4.666-10.4-10.4z"></path>
</symbol>
<symbol id="icon-unchecked" viewBox="0 0 32 32">
<title>unchecked</title>
<path d="M32 1.979l-1.979-1.979-14.021 14.021-14.021-14.021-1.979 1.979 14.021 14.021-14.021 14.021 1.979 1.979 14.021-14.021 14.021 14.021 1.979-1.979-14.021-14.021z"></path>
</symbol>
<symbol id="icon-checked" viewBox="0 0 32 32">
<title>checked</title>
<path d="M30.331 4.917l-18.83 18.83-9.833-9.833-1.669 1.669 11.502 11.501 20.498-20.498z"></path>
</symbol>
</defs>
</svg>
